<?xml version="1.0" encoding="UTF-8"?>
<svg width="55px" height="56px" viewBox="0 0 55 56" version="1.1" xmlns="http://www.w3.org/2000/svg" xmlns:xlink="http://www.w3.org/1999/xlink">
    <!-- Generator: Sketch 53.2 (72643) - https://sketchapp.com -->
    <title>Group</title>
    <desc>Created with Sketch.</desc>
    <g id="Page-1" stroke="none" stroke-width="1" fill="none" fill-rule="evenodd">
        <g id="Group" fill-rule="nonzero">
            <g>
                <path d="M27.2,54.2 C12.8,54.2 1,42.4 1,28 C1,13.6 12.8,1.7 27.2,1.7 C41.6,1.7 53.5,13.5 53.5,28 C53.5,42.5 41.7,54.2 27.2,54.2 Z" id="Path" fill="#FFFFFF"></path>
                <path d="M27.3,2.7 C41.2,2.7 52.6,14 52.6,28 C52.6,42 41.2,53.2 27.3,53.2 C13.4,53.2 2,41.9 2,28 C2,14.1 13.3,2.7 27.3,2.7 L27.3,2.7 Z M27.3,0.7 C12.2,0.7 0,12.9 0,28 C0,43 12.2,55.3 27.3,55.3 C42.4,55.3 54.6,43.1 54.6,28 C54.5,12.9 42.3,0.7 27.3,0.7 L27.3,0.7 Z" id="Shape" fill="#37BCED"></path>
            </g>
            <polygon id="Path" fill="#7FB1DF" points="41.6 15.6 39.6 13.6 27.3 25.9 14.9 13.6 12.9 15.6 25.2 27.9 12.9 40.3 14.9 42.3 27.3 30 39.6 42.3 41.6 40.3 29.3 27.9"></polygon>
        </g>
    </g>
</svg>