<?xml version="1.0" encoding="UTF-8"?>
<svg width="55px" height="55px" viewBox="0 0 55 55" version="1.1" xmlns="http://www.w3.org/2000/svg" xmlns:xlink="http://www.w3.org/1999/xlink">
    <!-- Generator: Sketch 53.2 (72643) - https://sketchapp.com -->
    <title>Group</title>
    <desc>Created with Sketch.</desc>
    <g id="Page-1" stroke="none" stroke-width="1" fill="none" fill-rule="evenodd">
        <g id="Group" fill-rule="nonzero">
            <g>
                <path d="M27.7,53.5 C13.2,53.5 1.4,41.7 1.4,27.2 C1.4,12.7 13.2,0.9 27.7,0.9 C42.2,0.9 54,12.8 54,27.3 C54,41.8 42.2,53.5 27.7,53.5 Z" id="Path" fill="#FFFFFF"></path>
                <path d="M27.8,2 C41.7,2 53.1,13.3 53.1,27.3 C53.1,41.3 41.8,52.6 27.8,52.6 C13.8,52.6 2.5,41.3 2.5,27.3 C2.5,13.3 13.8,2 27.8,2 L27.8,2 Z M27.8,0 C12.8,0 0.5,12.2 0.5,27.3 C0.5,42.4 12.7,54.6 27.8,54.6 C42.9,54.6 55,42.3 55,27.3 C55,12.3 42.8,0 27.8,0 L27.8,0 Z" id="Shape" fill="#37BCED"></path>
            </g>
            <path d="M43.7,35.3 L27.7,7.7 L11.7,35.3 L10.1,38.1 L13.4,38.1 L27.7,38.1 L42,38.1 L45.3,38.1 L43.7,35.3 Z M27.8,35.3 L15.1,35.3 L27.8,13.4 L40.5,35.3 L27.8,35.3 Z" id="Shape" fill="#66C194"></path>
        </g>
    </g>
</svg>