<?xml version="1.0" encoding="UTF-8"?>
<svg width="55px" height="55px" viewBox="0 0 55 55" version="1.1" xmlns="http://www.w3.org/2000/svg" xmlns:xlink="http://www.w3.org/1999/xlink">
    <!-- Generator: Sketch 53.2 (72643) - https://sketchapp.com -->
    <title>Group</title>
    <desc>Created with Sketch.</desc>
    <g id="Page-1" stroke="none" stroke-width="1" fill="none" fill-rule="evenodd">
        <g id="Group" fill-rule="nonzero">
            <g>
                <path d="M27.3,53.9 C12.8,53.9 1.1,42.1 1.1,27.7 C1.1,13.3 12.9,1.4 27.3,1.4 C41.7,1.4 53.6,13.2 53.6,27.7 C53.6,42.2 41.7,53.9 27.3,53.9 Z" id="Path" fill="#FFFFFF"></path>
                <path d="M27.3,2.4 C41.2,2.4 52.6,13.7 52.6,27.7 C52.6,41.7 41.3,52.9 27.3,52.9 C13.3,52.9 2,41.6 2,27.6 C2,13.6 13.3,2.4 27.3,2.4 L27.3,2.4 Z M27.3,0.4 C12.3,0.4 0,12.6 0,27.7 C0,42.8 12.2,54.9 27.3,54.9 C42.4,54.9 54.6,42.7 54.6,27.7 C54.6,12.7 42.3,0.4 27.3,0.4 L27.3,0.4 Z" id="Shape" fill="#37BCED"></path>
            </g>
            <path d="M38.8,13.2 L15.8,13.2 L13,13.2 L13,16 L13,39 L13,41.8 L15.8,41.8 L38.8,41.8 L41.6,41.8 L41.6,39 L41.6,16 L41.6,13.2 C41.6,13.2 38.8,13.2 38.8,13.2 Z M38.8,39.1 L15.8,39.1 L15.8,16.1 L38.8,16.1 L38.8,39.1 Z" id="Shape" fill="#CB79B1"></path>
        </g>
    </g>
</svg>