<?xml version="1.0" encoding="UTF-8"?>
<svg width="36px" height="52px" viewBox="0 0 36 52" version="1.1" xmlns="http://www.w3.org/2000/svg" xmlns:xlink="http://www.w3.org/1999/xlink">
    <!-- Generator: Sketch 53.2 (72643) - https://sketchapp.com -->
    <title>Group</title>
    <desc>Created with Sketch.</desc>
    <g id="Page-1" stroke="none" stroke-width="1" fill="none" fill-rule="evenodd">
        <g id="dpad" transform="translate(-38.000000, -53.000000)" fill-rule="nonzero">
            <g id="Group" transform="translate(0.000000, 53.000000)">
                <g transform="translate(38.000000, 0.000000)" id="Path">
                    <path d="M15.2,50 C17.2,51.4 18.1,51.2 18.1,51.2 C18.1,51.2 19,51.4 21,50 C23,48.6 34.6,35 35,34.3 C35.4,33.6 37.2,5.8 33.7,2.9 C30.2,0 18.1,0.3 18.1,0.3 C18.1,0.3 6,0.1 2.5,2.9 C-1,5.7 0.8,33.6 1.2,34.3 C1.6,35 13.2,48.6 15.2,50 Z" fill="#E6E6E6"></path>
                    <path d="M15.2,50 C17.2,51.4 18.1,51.2 18.1,51.2 C18.1,51.2 19,51.4 21,50 C22.3,49.1 27.6,43.1 31.3,38.8 C27.4,36.7 22.9,35.4 18.1,35.4 C13.3,35.4 8.8,36.6 4.9,38.8 C8.6,43.1 13.9,49.1 15.2,50 Z" fill="#FFFFFF" opacity="0.25"></path>
                </g>
            </g>
        </g>
    </g>
</svg>