<?xml version="1.0" encoding="UTF-8"?>
<svg width="52px" height="36px" viewBox="0 0 52 36" version="1.1" xmlns="http://www.w3.org/2000/svg" xmlns:xlink="http://www.w3.org/1999/xlink">
    <!-- Generator: Sketch 53.2 (72643) - https://sketchapp.com -->
    <title>Group</title>
    <desc>Created with Sketch.</desc>
    <g id="Page-1" stroke="none" stroke-width="1" fill="none" fill-rule="evenodd">
        <g id="dpad" transform="translate(-128.000000, -53.000000)" fill-rule="nonzero">
            <g id="Group" transform="translate(0.000000, 53.000000)">
                <g transform="translate(128.000000, 0.000000)" id="Path">
                    <path d="M48.9,2.4 C46,-1.1 18.2,0.7 17.5,1.1 C16.8,1.5 3.2,13.1 1.8,15.1 C0.4,17.1 0.6,18 0.6,18 C0.6,18 0.4,18.9 1.8,20.9 C3.2,22.9 16.8,34.5 17.5,34.9 C18.2,35.3 46,37.1 48.9,33.6 C51.8,30.1 51.5,18 51.5,18 C51.5,18 51.8,5.9 48.9,2.4 Z" fill="#8F55CB"></path>
                    <path d="M13.1,4.9 C8.8,8.6 2.8,13.9 1.9,15.2 C0.5,17.2 0.7,18.1 0.7,18.1 C0.7,18.1 0.5,19 1.9,21 C2.8,22.3 8.8,27.6 13.1,31.3 C15.2,27.4 16.5,22.9 16.5,18.1 C16.5,13.3 15.2,8.8 13.1,4.9 Z" fill="#FFFFFF" opacity="0.25"></path>
                </g>
            </g>
        </g>
    </g>
</svg>