<?xml version="1.0" encoding="UTF-8"?>
<svg width="37px" height="52px" viewBox="0 0 37 52" version="1.1" xmlns="http://www.w3.org/2000/svg" xmlns:xlink="http://www.w3.org/1999/xlink">
    <!-- Generator: Sketch 53.2 (72643) - https://sketchapp.com -->
    <title>Group</title>
    <desc>Created with Sketch.</desc>
    <g id="Page-1" stroke="none" stroke-width="1" fill="none" fill-rule="evenodd">
        <g id="dpad" transform="translate(0.000000, -53.000000)" fill-rule="nonzero">
            <g id="Group" transform="translate(0.000000, 53.000000)">
                <g id="Path">
                    <path d="M21.6,1.5 C19.6,0.1 18.7,0.3 18.7,0.3 C18.7,0.3 17.8,0.1 15.8,1.5 C13.8,2.9 2.2,16.5 1.8,17.2 C1.4,17.9 -0.4,45.7 3.1,48.6 C6.6,51.5 18.7,51.2 18.7,51.2 C18.7,51.2 30.8,51.5 34.3,48.6 C37.8,45.7 36,17.9 35.6,17.2 C35.2,16.5 23.6,2.9 21.6,1.5 Z" fill="#E6E6E6"></path>
                    <path d="M21.6,1.5 C19.6,0.1 18.7,0.3 18.7,0.3 C18.7,0.3 17.8,0.1 15.8,1.5 C14.5,2.4 9.2,8.4 5.5,12.7 C9.4,14.8 13.9,16.1 18.7,16.1 C23.5,16.1 28,14.9 31.9,12.7 C28.2,8.4 22.9,2.4 21.6,1.5 Z" fill="#FFFFFF" opacity="0.25"></path>
                </g>
            </g>
        </g>
    </g>
</svg>