<?xml version="1.0" encoding="UTF-8"?>
<svg width="52px" height="36px" viewBox="0 0 52 36" version="1.1" xmlns="http://www.w3.org/2000/svg" xmlns:xlink="http://www.w3.org/1999/xlink">
    <!-- Generator: Sketch 53.2 (72643) - https://sketchapp.com -->
    <title>Group</title>
    <desc>Created with Sketch.</desc>
    <g id="Page-1" stroke="none" stroke-width="1" fill="none" fill-rule="evenodd">
        <g id="dpad" transform="translate(-75.000000, -53.000000)" fill-rule="nonzero">
            <g id="Group" transform="translate(0.000000, 53.000000)">
                <g transform="translate(75.000000, 0.000000)" id="Path">
                    <path d="M50.5,20.9 C51.9,18.9 51.7,18 51.7,18 C51.7,18 51.9,17.1 50.5,15.1 C49.1,13.1 35.5,1.5 34.8,1.1 C34.1,0.7 6.3,-1.1 3.4,2.4 C0.5,5.9 0.8,18 0.8,18 C0.8,18 0.5,30.1 3.4,33.6 C6.3,37.1 34.1,35.3 34.8,34.9 C35.5,34.5 49.1,22.9 50.5,20.9 Z" fill="#E6E6E6"></path>
                    <path d="M50.5,20.9 C51.9,18.9 51.7,18 51.7,18 C51.7,18 51.9,17.1 50.5,15.1 C49.6,13.8 43.6,8.5 39.3,4.8 C37.2,8.7 35.9,13.2 35.9,18 C35.9,22.8 37.1,27.3 39.3,31.2 C43.6,27.5 49.6,22.2 50.5,20.9 Z" fill="#FFFFFF" opacity="0.25"></path>
                </g>
            </g>
        </g>
    </g>
</svg>