<?xml version="1.0" encoding="UTF-8"?>
<svg width="94px" height="94px" viewBox="0 0 94 94" version="1.1" xmlns="http://www.w3.org/2000/svg" xmlns:xlink="http://www.w3.org/1999/xlink">
    <!-- Generator: Sketch 53.2 (72643) - https://sketchapp.com -->
    <title>stick</title>
    <desc>Created with Sketch.</desc>
    <g id="Page-1" stroke="none" stroke-width="1" fill="none" fill-rule="evenodd">
        <g id="stick" fill-rule="nonzero">
            <g id="Group" fill="#37A4EB">
                <path d="M47,92.5 C21.9,92.5 1.5,72.1 1.5,47 C1.5,21.9 21.9,1.5 47,1.5 C72.1,1.5 92.5,21.9 92.5,47 C92.5,72.1 72.1,92.5 47,92.5 Z" id="Path"></path>
                <path d="M47,3 C71.3,3 91,22.7 91,47 C91,71.3 71.3,91 47,91 C22.7,91 3,71.3 3,47 C3,22.7 22.7,3 47,3 L47,3 Z M47,0 C21,0 0,21 0,47 C0,73 21,94 47,94 C73,94 94,73 94,47 C94,21 73,0 47,0 L47,0 Z" id="Shape"></path>
            </g>
            <circle id="Oval" fill-opacity="0.6" fill="#8F55CB" cx="47" cy="47" r="27.3"></circle>
        </g>
    </g>
</svg>